<?xml version="1.0" encoding="UTF-8"?><svg id="Layer_2" xmlns="http://www.w3.org/2000/svg" viewBox="0 0 372.084 726.4194"><g id="Components"><g id="_68bb690c-250f-43a6-b2df-c9d763eae966_5"><path d="M25.3341,535.896c.8497-.8077,1.7806-1.2922,2.7475-.903,2.6827,1.2775,14.9376,7.1977,31.452,15.1531,41.7579,20.1337,110.3074,53.1546,117.0046,56.4056,1.7933,1.2757,1.6902,2.2564,1.7302,5.4774-.0005,10.8594.0005,48.516-.0007,56.9164.0017,1.6486-.2342,3.2739-1.6758,4.1297-27.9894,13.2938-88.037,41.2151-109.3259,51.2714-4.0816,1.923-6.2223,3.7855-8.5788-.882-3.6184-6.5087-21.7599-38.69-25.3503-45.1998-.9853-1.763-.2132-3.1626,1.506-3.9214,8.557-4.0346,50.432-23.5371,68.8068-32.1416,2.1197-.8059,2.4284-3.4804.6383-4.4755-8.7015-4.2759-91.3174-44.6392-101.4871-49.6177-.9931-.5039-1.9317-1.1773-1.8578-2.4398.0207-1.3592,1.4965-3.6616,3.4152-7.7375,5.6492-11.1014,14.818-30.9202,20.8402-41.8944l.1354-.141Z" style="fill:#fff;"/><path d="M372.0577,586.2343c-10.4794,8.2291-95.1527,45.7579-104.2419,52.4235-.5403,1.0795-.1251,2.7295,1.1502,3.3326,1.8656.9254,6.1775,2.8943,11.9815,5.6199,19.5753,9.3305,51.0661,23.4669,58.4011,27.5073.9316.7168.9183,1.8414.429,2.9034-.9084,1.8274-3.1444,5.6398-5.8814,10.5699-5.1651,9.1995-12.2494,21.8174-16.5053,29.3976-2.5692,3.7254-3.7497,9.7147-7.741,8.1863-8.7395-4.0957-76.0023-35.6227-102.7062-48.1387-3.3745-1.5816-6.1011-2.8596-7.9798-3.7402-2.0123-1.0186-2.9984-1.0284-3.8226-2.7776-1.087-10.0156.0179-46.8968-.3657-59.4891.031-3.0179-.1001-4.0803,1.6204-5.4113,8.4351-4.0749,113.1334-54.5866,140.4308-67.7287,2.6001-1.2537,4.683-2.2579,6.1465-2.9635,1.9922-.9532,2.6777-1.6953,4.4405-.2405.6844.5942,1.2996,1.608,1.7105,2.5648,3.66,8.5114,21.1127,40.9718,22.9598,47.8384l-.0263.1458Z" style="fill:#fff;"/><path d="M240.8468,551.8765c40.1726-34.1988,58.2913-77.0205,30.4007-142.5842-1.4963-4.2911-4.8194-.3987-6.8999,1.9102-8.3058,9.2172-22.6961,21.5659-35.5902,28.4575-.7129.381-1.5053-.2678-1.1446-.9912,6.2333-12.4991,29.7653-65.2018,9.8148-112.9363-10.1976-24.9881-24.2589-43.74-43.9318-61.8048-3.0007-2.7554-7.4235,11.7044-9.0576,22.3618-.1793,1.1693-1.8143,1.2754-2.1416.1386-2.3384-8.1238-6.4544-18.3002-11.8671-29.7789-.6551-1.3893-2.7302-.993-2.8186.5405l-.0036.0629c-2.1393,129.7818-138.7967,189.7192-29.07,295.7157,2.8622,2.7649-.4735,7.4704-4.1355,5.9126-20.2565-8.6166-53.4807-24.6454-73.6846-43.6283-154.5027-145.1647,36.1104-296.16,23.5703-397.2999l-.0098-.01v-.01c-.4204-3.4601-1.1001-6.8301-2.0605-10.1301,15.3604,9.0601,29.8003,21.0801,40.8203,31.5.8398.74,2.48,2.53,4,3.4501.0898.0599.1797.11.27.16l.04.02c1.2798.6799,2.4199.6199,2.8501-1.3601,4.6396-37.08,20.9199-78.96,60.6499-133.3599,3.3101-4.4202,9.5698-13.9202,7.6099-3.52-9.3999,74.2799,95.3999,163.83,118.21,260.0499,1.6699.16,3.0703-1.48,4.1499-2.62,9.8604-10.96,20.8403-22.1799,33.8403-32.95,1.3096-1.05,2.6499-2.23,4.1299-3.15.6001-.36,1.0898-.55,1.2002-.3199l.0195.0499c-59.565,136.3288,124.4105,244.2822-115.4958,332.4203-3.8875,1.4282-6.8182-3.6116-3.6646-6.2962Z" style="fill:#fff;"/><path d="M164.6573,470.3321c-1.7382,1.0357-3.9582-.235-3.9693-2.2583-.1813-33.0722,13.7697-62.2089,20.9205-85.4714l.0498-.02c.52-.1499,1.1904.25,1.9404.99,15.6168,17.3012,26.9583,59.4095-18.9414,86.7598Z" style="fill:#fff;"/><path d="M209.7887,497.6625c0,28.58-19.54,32.46-29.9502,31.3199-6.7888-1.2731-15.6684-28.3901-17.4137-43.2823-.1273-1.0864.4433-2.1351,1.4178-2.6318,6.4366-3.2809,30.0893-15.5259,34.5857-17.8958,2.7104-1.6101,4.8403-1.1401,6.1104,2.03,4.1997,11.8298,5.3296,20.23,5.25,30.46Z" style="fill:#fff;"/></g></g></svg>